<?xml version="1.0" standalone="no"?>
<!DOCTYPE svg PUBLIC "-//W3C//DTD SVG 20010904//EN"
 "http://www.w3.org/TR/2001/REC-SVG-20010904/DTD/svg10.dtd">
<svg version="1.0" xmlns="http://www.w3.org/2000/svg"
 width="576.000000pt" height="576.000000pt" viewBox="0 0 576.000000 576.000000"
 preserveAspectRatio="xMidYMid meet">
<metadata>
Created by potrace 1.14, written by Peter Selinger 2001-2017
</metadata>
<g transform="translate(0.000000,576.000000) scale(0.100000,-0.100000)"
fill="#000000" stroke="none">
<path d="M1113 5742 c-70 -25 -118 -64 -161 -131 -36 -54 -37 -59 -37 -151 0
-87 3 -100 30 -149 91 -164 301 -209 450 -96 l46 35 54 -40 c30 -22 56 -40 59
-40 6 0 63 -50 98 -85 43 -43 56 -78 73 -200 9 -58 13 -83 25 -144 5 -30 9
-56 7 -58 -2 -2 -23 -6 -46 -9 -23 -3 -50 -7 -59 -9 -9 -2 -20 -4 -24 -4 -10
-1 3 -103 14 -118 5 -6 15 -10 21 -8 14 5 79 13 165 21 110 11 188 -38 222
-141 l11 -34 36 25 c20 13 47 27 59 30 22 6 22 6 6 50 -9 24 -20 44 -24 44 -4
0 -8 6 -8 14 0 23 -88 96 -146 122 -36 16 -73 24 -108 24 l-54 0 -6 38 c-3 20
-8 57 -11 82 -12 89 -45 230 -61 262 -20 38 -74 92 -135 133 -24 17 -53 38
-64 47 -11 9 -30 25 -43 35 -22 18 -23 19 -7 62 45 128 8 259 -97 343 -79 64
-190 83 -285 50z"/>
<path d="M4526 5623 c-72 -16 -114 -41 -163 -97 -63 -72 -93 -197 -64 -270 14
-35 22 -28 -114 -97 -55 -28 -115 -62 -134 -76 -46 -35 -82 -95 -109 -184 -13
-41 -26 -81 -30 -89 -3 -8 -13 -37 -22 -65 l-16 -50 -79 -6 c-44 -3 -93 -12
-110 -19 -47 -22 -115 -72 -115 -86 0 -6 -7 -14 -15 -18 -8 -3 -28 -34 -44
-68 l-28 -63 26 -11 c14 -6 39 -23 55 -38 29 -28 36 -28 40 -4 6 31 39 95 62
119 14 15 43 35 65 45 38 17 48 17 167 2 70 -8 128 -14 129 -14 1 1 6 27 11
58 10 67 4 78 -49 78 -21 0 -41 4 -44 10 -7 11 67 234 96 290 25 48 58 73 183
139 89 46 103 51 123 40 13 -7 23 -18 23 -24 0 -6 11 -18 25 -25 14 -7 25 -17
25 -21 0 -13 107 -49 158 -53 133 -11 284 101 308 229 22 119 -1 205 -73 282
-73 77 -182 110 -287 86z"/>
<path d="M2725 4923 c-62 -8 -135 -34 -165 -59 -51 -44 -68 -89 -73 -197 -5
-101 -13 -123 -65 -179 -31 -34 -100 -58 -210 -74 -67 -9 -112 -35 -137 -79
-22 -37 -25 -53 -25 -143 0 -55 5 -113 11 -129 17 -46 59 -83 102 -90 29 -4
41 -12 48 -30 5 -13 9 -118 9 -233 0 -131 4 -211 10 -215 6 -4 7 -12 3 -18
-12 -19 -12 -36 -2 -43 6 -4 6 -11 -1 -19 -7 -8 -9 -125 -8 -358 l3 -346 40
36 c83 74 209 140 318 165 40 9 62 20 73 36 8 12 19 20 25 17 13 -9 0 -27 -14
-19 -7 4 -9 3 -4 -1 4 -5 17 -9 28 -10 14 -1 18 3 14 14 -5 12 -3 12 13 -2 17
-16 19 -15 36 1 11 9 16 12 12 6 -3 -7 0 -14 7 -16 18 -7 38 2 31 14 -4 7 -2
8 4 4 7 -4 12 -1 12 6 0 10 2 10 9 -1 5 -7 14 -11 20 -7 7 5 9 1 5 -8 -4 -10
-1 -16 7 -17 8 0 22 -2 32 -4 15 -3 16 -1 5 13 -7 9 0 6 15 -7 15 -14 30 -21
34 -18 3 4 13 1 21 -5 20 -17 46 -20 33 -4 -6 7 -8 16 -4 19 3 4 -5 7 -20 7
-14 0 -32 8 -39 19 -21 30 -93 61 -150 64 -72 4 -124 -9 -181 -45 -39 -25 -50
-28 -62 -18 -21 17 -19 33 8 58 92 86 281 92 402 13 43 -29 71 -71 54 -82 -27
-16 -4 -38 94 -93 75 -43 109 -68 192 -147 l30 -28 -1 617 c0 339 3 626 7 637
3 11 10 20 15 21 11 0 124 24 145 30 33 9 70 52 83 95 7 24 12 82 11 129 -3
117 -12 142 -69 180 -20 14 -47 27 -60 28 -48 4 -170 33 -203 49 -36 17 -75
61 -92 105 -5 14 -11 62 -12 105 -5 178 -89 251 -299 257 -52 1 -108 1 -125
-1z m227 -473 c98 -37 177 -109 227 -208 49 -98 48 -250 -3 -355 -89 -182
-306 -272 -497 -206 -109 38 -187 108 -241 217 -30 62 -32 74 -32 167 0 83 4
109 24 155 26 61 98 159 118 160 6 0 12 4 12 8 0 15 83 56 145 73 76 21 173
17 247 -11z m-21 -907 c83 -41 105 -64 89 -92 -14 -28 -22 -27 -71 9 -98 71
-253 77 -351 14 -45 -29 -64 -30 -77 -5 -14 25 19 55 95 86 50 20 74 24 154
22 85 -2 103 -6 161 -34z m-19 -111 c89 -39 130 -80 107 -108 -12 -15 -45 -19
-51 -6 -1 4 -16 17 -33 28 -89 62 -245 66 -337 8 -43 -27 -61 -30 -77 -10 -22
26 55 85 137 106 60 15 201 5 254 -18z m-478 -91 c18 -19 20 -35 21 -183 2
-179 -6 -213 -52 -224 -36 -9 -75 7 -90 36 -8 17 -12 75 -11 185 l1 160 28 28
c32 32 69 31 103 -2z m779 0 c20 -20 22 -32 23 -184 1 -162 -2 -182 -32 -211
-17 -18 -94 -22 -94 -5 0 5 -5 7 -12 3 -6 -4 -8 -3 -4 4 3 6 3 13 -2 16 -4 3
-9 82 -9 177 l-1 173 28 27 c32 33 71 33 103 0z m-360 -85 c52 -21 109 -75
105 -100 -5 -32 -35 -31 -74 4 -43 37 -73 50 -120 50 -40 0 -101 -29 -127 -59
-14 -17 -21 -19 -37 -11 -29 15 -25 38 12 72 66 61 160 78 241 44z m-79 -271
c-4 -8 -11 -12 -16 -9 -6 4 -5 10 3 15 19 12 19 11 13 -6z"/>
<path d="M2774 4349 c-111 -14 -163 -49 -128 -84 10 -10 23 -13 33 -9 90 38
151 43 217 16 106 -43 162 -124 169 -241 2 -32 17 -51 42 -51 18 0 27 44 19
96 -23 168 -186 295 -352 273z"/>
<path d="M2784 4102 c-21 -14 -23 -41 -5 -64 16 -20 22 -21 45 -10 17 8 26 19
26 35 0 38 -36 60 -66 39z"/>
<path d="M2622 4033 c-45 -22 -64 -53 -64 -106 -2 -107 126 -162 202 -86 57
57 45 146 -25 189 -39 24 -69 25 -113 3z"/>
<path d="M1444 4781 c-25 -15 -34 -31 -44 -70 -7 -28 -19 -55 -29 -60 -9 -5
-46 -12 -82 -15 -36 -4 -76 -9 -90 -11 -13 -2 -46 -6 -74 -9 -175 -15 -191
-18 -220 -42 -26 -20 -30 -31 -30 -70 0 -38 5 -50 29 -71 27 -23 35 -25 97
-19 37 4 111 13 165 21 145 22 150 21 123 -39 -14 -30 -50 -43 -138 -51 -84
-7 -133 -32 -201 -100 -46 -46 -53 -58 -44 -73 18 -27 39 -20 93 31 61 57 101
76 184 83 34 3 77 10 95 15 41 14 82 73 84 122 2 49 27 49 53 0 27 -52 54 -72
95 -73 24 0 44 8 63 25 27 26 29 29 30 63 0 14 -14 156 -18 172 -1 3 -5 35 -9
73 -8 70 -21 92 -63 108 -32 12 -33 12 -69 -10z"/>
<path d="M4140 4787 c-35 -18 -48 -50 -55 -147 -4 -47 -11 -106 -15 -133 -11
-74 -5 -109 25 -134 51 -44 118 -25 155 45 18 35 19 35 20 11 0 -31 23 -80 47
-101 25 -21 69 -34 128 -37 87 -4 123 -19 186 -77 63 -58 92 -65 97 -26 3 17
-7 34 -35 59 -92 84 -123 98 -231 108 -84 8 -107 18 -122 55 -18 44 -6 51 65
40 33 -5 83 -12 110 -15 28 -4 57 -8 65 -10 43 -11 140 -15 163 -6 42 16 63
70 46 119 -17 50 -53 62 -229 77 -58 5 -194 22 -246 30 -27 5 -32 11 -48 63
-23 77 -71 107 -126 79z"/>
<path d="M2058 3755 c-2 -1 -25 -5 -53 -9 -27 -3 -62 -8 -77 -11 -16 -3 -38
-7 -50 -9 -81 -14 -176 -72 -206 -125 -26 -46 -26 -53 -8 -94 17 -39 61 -140
111 -262 20 -49 43 -103 50 -120 7 -16 61 -145 120 -285 58 -140 112 -268 120
-285 7 -16 30 -69 50 -117 21 -49 39 -88 40 -88 2 0 2 316 1 703 l-1 702 -47
1 c-26 1 -48 1 -50 -1z"/>
<path d="M3391 3064 c0 -426 4 -691 9 -679 9 20 95 223 165 390 20 50 43 104
50 120 16 36 58 137 110 260 58 140 87 208 135 321 28 67 30 84 14 115 -44 88
-181 142 -416 165 l-68 6 1 -698z m136 424 c-3 -8 -6 -5 -6 6 -1 11 2 17 5 13
3 -3 4 -12 1 -19z m39 -31 c1 -40 -2 -46 -18 -44 -35 6 -40 23 -14 48 25 24
36 46 16 34 -5 -3 -10 -1 -10 5 0 7 6 10 13 8 7 -3 12 -24 13 -51z"/>
<path d="M3536 3451 c-16 -17 -16 -19 1 -23 14 -4 18 1 18 19 0 12 0 23 -1 23
0 0 -9 -8 -18 -19z"/>
<path d="M1693 2805 c-78 -58 -155 -123 -173 -145 -40 -50 -70 -135 -70 -197
0 -35 34 -223 45 -250 0 -1 93 30 205 68 113 39 221 75 240 81 70 21 110 40
110 54 0 7 -9 33 -20 56 -18 40 -51 120 -146 346 -21 50 -41 92 -44 92 -3 0
-69 -47 -147 -105z"/>
<path d="M3684 2893 c-3 -10 -12 -31 -20 -48 -16 -34 -168 -401 -177 -427 -4
-10 -5 -18 -3 -18 2 0 128 -42 280 -94 152 -52 276 -94 277 -93 0 1 11 45 24
97 52 217 7 334 -179 465 -31 22 -62 45 -69 50 -29 25 -115 85 -121 85 -4 0
-9 -8 -12 -17z"/>
<path d="M2640 2893 c-84 -12 -268 -93 -318 -140 -106 -99 -102 -93 -102 -141
l0 -45 28 24 c15 13 32 29 37 34 23 25 111 79 173 107 138 63 329 80 473 43
127 -33 277 -120 352 -204 15 -17 31 -31 35 -31 12 0 7 61 -6 86 -23 42 -162
164 -188 164 -6 0 -17 7 -24 15 -7 9 -18 14 -23 12 -6 -2 -19 5 -30 16 -11 11
-27 17 -38 14 -10 -3 -19 -2 -19 3 0 12 -99 42 -129 38 -14 -1 -31 1 -38 5 -6
4 -22 6 -36 5 -20 -2 -23 -5 -15 -15 11 -14 2 -51 -10 -39 -7 8 -8 13 -11 41
-1 9 -10 14 -25 13 -14 -1 -22 -6 -20 -10 7 -10 -3 -10 -24 0 -9 4 -28 6 -42
5z m36 -30 c2 -10 -3 -24 -9 -32 -10 -12 -9 -13 10 -3 22 12 53 7 53 -9 0 -13
-18 -11 -23 4 -4 8 -8 8 -14 2 -4 -5 -16 -11 -26 -13 -15 -3 -17 1 -12 19 5
16 4 19 -5 14 -10 -6 -11 -4 -4 6 5 8 9 17 10 22 1 4 2 10 3 14 2 11 15 -7 17
-24z m45 8 c-11 -7 -11 -9 0 -13 8 -3 11 -8 8 -12 -3 -3 -14 -4 -23 0 -16 6
-16 8 0 25 10 11 20 17 23 14 3 -4 -1 -10 -8 -14z m100 -5 c-6 -7 -8 -15 -5
-19 3 -3 2 -13 -4 -23 -6 -11 -11 -13 -16 -5 -4 6 -2 11 3 11 6 0 11 5 11 11
0 5 -4 7 -10 4 -5 -3 -10 -1 -10 4 0 6 5 11 10 11 6 0 9 3 9 8 -3 16 2 23 11
17 8 -5 8 -11 1 -19z m49 10 c0 -2 -7 -7 -16 -10 -8 -3 -12 -2 -9 4 6 10 25
14 25 6z m-15 -36 c-3 -5 -1 -10 6 -10 7 0 10 -2 7 -5 -3 -3 -13 -2 -22 1 -14
5 -15 9 -4 15 17 11 20 11 13 -1z m-80 -20 c3 -6 -1 -7 -9 -4 -18 7 -21 14 -7
14 6 0 13 -4 16 -10z"/>
<path d="M2708 2765 c-2 -2 -23 -6 -48 -9 -148 -20 -291 -90 -395 -192 l-45
-45 0 -83 c0 -45 3 -86 7 -90 10 -10 13 -37 3 -31 -9 6 -6 -28 5 -44 3 -5 1
-12 -5 -16 -11 -7 -15 -1047 -3 -1059 4 -3 8 -17 10 -29 2 -18 1 -19 -7 -7 -8
12 -10 11 -7 -5 1 -11 6 -25 9 -30 4 -6 3 -17 -3 -25 -5 -8 -9 -99 -9 -201 l0
-186 63 -23 c34 -13 67 -24 72 -26 11 -5 13 1255 2 1273 -4 6 -29 9 -56 8
l-49 -2 -12 59 c-21 106 -9 211 33 298 85 178 285 300 492 301 114 0 192 -22
295 -81 187 -109 286 -338 231 -535 l-11 -41 -52 1 -53 0 -3 -642 c-1 -354 -1
-643 1 -643 1 0 36 13 77 29 l75 28 0 881 0 881 -22 20 c-12 12 -25 27 -30 34
-4 7 -35 36 -68 64 -73 63 -196 125 -290 147 -63 15 -199 28 -207 21z"/>
<path d="M2682 2528 c-112 -15 -233 -85 -301 -174 -64 -84 -100 -209 -86 -301
l6 -43 464 0 c293 0 466 4 470 10 13 22 7 138 -10 195 -23 73 -55 127 -109
181 -43 43 -145 104 -206 122 -51 16 -155 20 -228 10z"/>
<path d="M1900 2282 c-91 -31 -167 -57 -170 -59 -5 -4 33 -163 62 -263 37
-125 109 -320 151 -410 12 -25 21 -47 22 -50 1 -8 100 -205 106 -210 3 -3 18
-30 33 -60 56 -109 54 -127 54 430 l-1 513 -36 83 c-20 46 -40 83 -46 83 -5 0
-84 -26 -175 -57z"/>
<path d="M3425 2278 l-30 -63 -2 -530 -3 -530 36 60 c59 101 216 428 214 448
0 4 6 20 14 35 16 31 104 294 111 330 2 12 11 46 19 75 30 103 30 116 -1 128
-16 6 -35 12 -43 14 -8 2 -55 18 -104 35 -69 23 -92 28 -103 19 -11 -9 -12 -9
-8 4 6 15 2 17 -55 33 -11 3 -25 -15 -45 -58z m141 -4 c1 -9 0 -13 -3 -10 -3
3 -15 1 -27 -5 -21 -10 -21 -10 -1 6 11 9 19 22 17 28 -2 7 0 8 4 4 4 -4 9
-15 10 -23z"/>
<path d="M2429 1905 c0 -22 0 -398 -1 -835 0 -575 3 -807 12 -838 6 -24 25
-66 42 -94 l31 -49 30 28 c17 15 38 35 47 43 49 49 111 100 120 100 21 0 9
-28 -27 -60 -132 -117 -142 -129 -126 -145 42 -43 89 -55 208 -55 77 0 127 5
149 14 43 18 112 80 142 127 55 87 54 73 54 971 0 655 -3 828 -12 829 -35 4
-208 3 -208 0 0 -2 13 -16 29 -30 16 -14 54 -48 84 -75 32 -28 53 -55 50 -62
-7 -18 -18 -11 -108 71 -119 108 -94 100 -317 100 l-198 0 -1 -40z m286 -51
c-14 -10 -178 -160 -210 -191 -10 -10 -15 -10 -24 1 -8 9 11 32 81 97 121 112
150 132 160 116 4 -7 1 -17 -7 -23z m171 -86 c4 -7 4 -10 -1 -6 -4 4 -15 2
-24 -5 -14 -11 -14 -10 -2 6 16 20 18 21 27 5z m-5 -33 c7 5 10 4 6 -2 -6 -10
71 -91 145 -155 19 -16 25 -27 19 -36 -6 -10 -32 7 -102 69 -149 130 -150 131
-137 146 9 11 15 10 34 -8 13 -12 28 -18 35 -14z m-161 -100 c0 -7 -6 -18 -14
-22 -7 -4 -54 -46 -105 -93 -107 -99 -121 -108 -121 -83 0 10 24 39 53 65 28
26 77 70 107 97 56 52 80 62 80 36z m165 -151 c28 -26 76 -69 108 -97 53 -47
71 -77 46 -77 -6 0 -50 35 -97 78 -47 42 -98 89 -114 103 -27 24 -28 39 -4 39
6 0 34 -21 61 -46z m-161 -73 c3 -5 -25 -36 -62 -69 -37 -33 -85 -76 -107 -97
-51 -46 -72 -58 -80 -45 -3 5 20 34 52 63 32 30 83 77 113 105 54 51 74 61 84
43z m191 -183 c38 -35 87 -80 109 -100 35 -31 38 -38 23 -44 -12 -4 -31 7 -65
38 -70 65 -124 114 -149 136 -13 11 -23 27 -23 36 0 24 22 10 105 -66z m-191
-47 c3 -5 -36 -46 -86 -92 -51 -46 -103 -94 -116 -106 -25 -25 -38 -28 -47
-14 -6 11 -8 8 110 116 49 44 93 85 99 92 13 15 33 16 40 4z m181 -173 c44
-40 98 -90 120 -110 34 -31 37 -38 22 -43 -12 -5 -25 0 -40 16 -13 13 -50 47
-83 75 -98 85 -114 102 -114 119 0 8 4 15 8 15 4 0 43 -33 87 -72z m-181 -63
c3 -8 -1 -18 -8 -22 -8 -5 -55 -46 -106 -93 -50 -47 -100 -89 -111 -94 -38
-18 -32 6 11 46 25 23 78 72 119 110 41 37 77 68 81 68 4 0 10 -7 14 -15z
m239 -220 c60 -54 94 -92 88 -98 -13 -13 -27 -3 -131 93 -133 122 -124 112
-108 121 8 5 21 1 33 -10 11 -9 64 -57 118 -106z m-239 -17 c-4 -6 -25 -27
-48 -49 -171 -159 -181 -167 -194 -156 -10 8 2 25 59 76 40 36 93 85 118 107
25 23 51 40 58 37 7 -3 10 -10 7 -15z m140 -112 c-1 -9 3 -15 10 -13 6 2 10
11 10 20 -1 9 2 14 7 11 5 -3 7 -15 5 -28 -3 -18 14 -39 80 -100 46 -43 81
-82 78 -87 -11 -18 -13 -16 -119 79 -26 23 -53 42 -61 42 -8 0 -19 11 -24 25
-5 14 -17 28 -25 31 -8 4 -15 14 -15 24 0 14 6 18 28 15 18 -2 27 -8 26 -19z
m-144 -119 c0 -8 -23 -34 -51 -58 -29 -24 -64 -55 -79 -69 -96 -91 -100 -94
-111 -83 -11 11 17 40 166 177 51 46 75 57 75 33z m160 -137 c29 -25 76 -66
104 -92 28 -26 54 -48 59 -48 10 0 9 -40 -2 -40 -4 0 -19 10 -33 23 -14 12
-60 54 -103 92 -105 93 -106 95 -99 106 8 14 15 10 74 -41z"/>
<path d="M1775 1404 c-124 -36 -145 -49 -145 -93 0 -57 45 -82 127 -69 194 28
242 40 234 57 -44 98 -68 141 -81 140 -8 0 -69 -16 -135 -35z"/>
<path d="M3580 1369 c-19 -39 -36 -75 -38 -79 -2 -6 55 -19 218 -46 73 -12
103 -7 127 21 13 14 23 36 23 49 0 23 -37 66 -57 66 -6 0 -34 7 -62 15 -28 8
-74 22 -102 30 -28 8 -56 15 -63 15 -6 0 -27 -32 -46 -71z"/>
</g>
</svg>
